<svg xmlns="http://www.w3.org/2000/svg" data-name="Layer 2" viewBox="0 0 548.36 210.76" class="w-23" data-v-32be9af0=""><path fill="#fff" d="M19.11 205.9H8.86l-1.64 4.85H.21l9.94-27.48h7.75l9.94 27.48h-7.08l-1.64-4.85zm-1.72-5.17l-3.41-10.06-3.37 10.06h6.77zm39.65 10.03l-5.71-10.37h-1.61v10.37h-6.69v-27.48h11.23c2.16 0 4.01.38 5.54 1.13 1.53.76 2.67 1.79 3.43 3.11.76 1.32 1.14 2.79 1.14 4.4 0 1.83-.52 3.46-1.55 4.89s-2.55 2.45-4.56 3.05l6.34 10.88h-7.55zm-7.32-15.11h4.15c1.23 0 2.15-.3 2.76-.9.61-.6.92-1.45.92-2.54s-.31-1.87-.92-2.47c-.61-.6-1.53-.9-2.76-.9h-4.15v6.81zm27.48-7.01v5.56h8.96v5.17H77.2v6.03h10.14v5.36H70.51v-27.48h16.83v5.36H77.2zm36.21-5.36v5.36h-7.28v22.12h-6.69v-22.12h-7.28v-5.36h21.25zm12.02 5.36v5.56h8.96v5.17h-8.96v6.03h10.14v5.36h-16.83v-27.48h16.83v5.36h-10.14zm33.27 22.12l-5.6-8.42-4.93 8.42h-7.59l8.81-13.97-9-13.5h7.79l5.52 8.3 4.85-8.3h7.6l-8.73 13.86 9.08 13.62h-7.79zm43.8-11.73c.97 1.24 1.45 2.66 1.45 4.25 0 2.3-.8 4.12-2.41 5.46-1.6 1.34-3.84 2.02-6.71 2.02h-12.8v-27.48h12.37c2.79 0 4.98.64 6.56 1.92 1.58 1.28 2.37 3.01 2.37 5.21 0 1.62-.43 2.96-1.27 4.03s-1.97 1.81-3.39 2.23c1.59.34 2.87 1.13 3.84 2.37zm-13.78-4.64h4.38c1.1 0 1.94-.24 2.53-.72s.88-1.19.88-2.13-.29-1.66-.88-2.15-1.43-.74-2.53-.74h-4.38v5.75zm7.53 10.2c.61-.51.92-1.25.92-2.21s-.32-1.72-.96-2.27c-.64-.55-1.52-.82-2.64-.82h-4.85v6.07h4.93c1.12 0 1.99-.25 2.6-.76zm27.5 6.17l-5.71-10.37h-1.61v10.37h-6.69v-27.48h11.23c2.16 0 4.01.38 5.54 1.13 1.53.76 2.67 1.79 3.43 3.11.76 1.32 1.14 2.79 1.14 4.4 0 1.83-.52 3.46-1.55 4.89s-2.55 2.45-4.56 3.05l6.34 10.88h-7.55zm-7.32-15.11h4.15c1.23 0 2.15-.3 2.76-.9.61-.6.92-1.45.92-2.54s-.31-1.87-.92-2.47c-.61-.6-1.53-.9-2.76-.9h-4.15v6.81zm37.89 10.25h-10.25l-1.64 4.85h-7.01l9.94-27.48h7.75l9.94 27.48h-7.08l-1.64-4.85zm-1.72-5.17l-3.41-10.06-3.37 10.06h6.77zm39.96 10.03h-6.69l-11.2-16.95v16.95h-6.69v-27.48h6.69l11.2 17.03v-17.03h6.69v27.48zM317.22 185c2.16 1.15 3.84 2.76 5.03 4.83 1.19 2.07 1.78 4.47 1.78 7.18s-.59 5.08-1.78 7.16c-1.19 2.09-2.87 3.71-5.05 4.85-2.18 1.15-4.7 1.72-7.57 1.72h-10.3v-27.48h10.3c2.9 0 5.43.57 7.59 1.72zm-2.11 17.89c1.41-1.38 2.11-3.34 2.11-5.87s-.71-4.5-2.11-5.91c-1.41-1.41-3.38-2.11-5.91-2.11h-3.17v15.97h3.17c2.53 0 4.5-.69 5.91-2.07zm-274.4-91.01c12.73 0 21.08-9.21 21.08-20.89v-3.58l-18.17 2.92c-9.82 1.47-14.85 5.44-14.85 11.94.26 5.81 5.1 9.61 11.94 9.61m22.34 20.48l-.39-12.9c-6.03 10.68-17.74 15.65-30.31 15.65-19.23 0-32.36-12.13-32.36-30.31 0-19.23 12.73-30.65 38.46-34.47l23.4-3.32v-1.26c0-8.55-6.69-13.6-20.97-13.6A51.093 51.093 0 006.21 65.94V36.9c8.94-6.03 21.94-10.48 37.8-10.48 30.1 0 47.21 14.2 47.21 41.18v64.78l-28.18-.02zm30.51-78.1v-3.98L141.84 0h.86v29.2h26.13v25.07H142.7v37.79c0 11.08 4.58 15.45 14.39 15.45a20.38 20.38 0 0011.68-3.78v26.71c-4.84 2.52-12.13 4.39-21.95 4.39-21.94 0-34.47-12.34-34.47-35.49V54.19H93.57v.06zm133.09 53.06c14.65.33 26.8-11.28 27.12-25.93.33-14.65-11.28-26.8-25.93-27.12-14.65-.33-26.8 11.28-27.13 25.93v.59c-.19 14.47 11.39 26.35 25.85 26.53h.09m0-80.83c31.76 0 55.96 23.6 55.96 54.3s-24.2 54.31-55.96 54.31-55.97-23.6-55.97-54.31 24.19-54.3 55.97-54.3m97.58 105.88h-30.49V29.13h30.49v12.9c5.65-9.42 15.45-15.64 29.03-15.64s24.66 6.45 30.31 17.97c6.45-10.89 18.16-17.97 33.21-17.97 23.6 0 37 15.84 37 41.16v64.8h-30.54V74.81c0-12.73-5.84-20.49-16.52-20.49s-17.57 8.35-17.74 22.34v55.78h-30.52V75.21c0-13.39-5.65-20.89-16.32-20.89s-17.92 8.76-17.92 23v55.04zm141.59-38.46c11.08 8.95 25.66 15.45 39.26 15.45 8.95 0 13.39-2.73 13.39-7.95 0-15.85-53.91-1.06-53.91-39.07 0-21.08 15.84-35.94 43.55-35.94 12.25.18 24.31 3.11 35.28 8.57v31.16a53.89 53.89 0 00-36.34-14.66c-10.02 0-13.39 3.58-13.39 7.76 0 14.2 54.7 1.26 54.7 39.92 0 23.21-19.03 35.94-43.23 35.94-16.71 0-29.44-3.78-39.46-9.42V93.91h.15z"></path></svg>